<svg width="512" height="512" viewBox="0 0 512 512" fill="none" xmlns="http://www.w3.org/2000/svg">
<path d="M2.5 160C2.5 73.0152 73.0152 2.5 160 2.5H352C438.985 2.5 509.5 73.0152 509.5 160V352C509.5 438.985 438.985 509.5 352 509.5H160C73.0152 509.5 2.5 438.985 2.5 352V160Z" fill="url(#paint0_linear_608_11)" stroke="#ECE9E9" stroke-width="5"/>
<path d="M361.517 148.284C345.456 126.511 308.37 111.631 283.738 130.829C273.95 138.465 269.084 148.392 269.141 160.61C269.424 220.144 269.537 279.685 269.48 339.233C269.452 353.532 268.653 363.452 267.083 368.993C256.241 406.944 214.339 421.621 177.253 410.329C149.827 402.004 131.079 384.921 121.008 359.08C120.916 358.84 120.767 358.622 120.572 358.443C120.378 358.264 120.142 358.129 119.884 358.046C86.9137 347.565 65.0609 318.94 69.58 284.456C69.6648 283.794 69.5375 283.165 69.1981 282.571C51.4188 252.02 56.9138 217.617 85.471 196.107C86.0226 195.689 86.3055 195.141 86.3196 194.465C86.7439 164.036 98.222 140.459 128.858 129.309C129.537 129.066 130.082 128.667 130.492 128.113C134.113 123.153 136.609 119.875 137.981 118.281C164.693 87.3849 209.947 91.5611 235.386 121.565C242.323 129.735 238.25 139.851 227.875 142.182C218.455 144.311 214.933 135.33 209.014 130.566C196.263 120.328 178.886 118.24 164.884 127.322C149.841 137.094 145.428 156.941 154.594 171.821C159.049 179.078 159.622 184.613 152.027 189.499C134.756 200.608 125.167 172.53 124.679 161.847C124.594 160.157 123.979 159.954 122.833 161.238C112.119 173.199 111.079 188.059 112.946 203.183C113.434 207.055 109.318 211.089 105.499 213.238C81.5035 226.8 79.4243 252.405 93.8302 274.421C94.9971 276.185 96.1216 279.246 95.676 281.273C86.5954 322.042 135.011 352.897 171.015 331.043C174.113 329.157 177.041 326.704 180.711 326.38C186.935 325.812 191.319 328.204 193.865 333.556C202.543 351.68 163.971 361.33 152.111 362.303C151.941 362.317 151.778 362.375 151.639 362.469C151.5 362.564 151.391 362.692 151.321 362.842C151.252 362.991 151.226 363.155 151.245 363.317C151.265 363.479 151.329 363.633 151.433 363.763C168.533 385.313 202.14 398.774 227.366 383.042C238.144 376.325 243.54 365.878 243.554 351.701C243.625 287.815 243.596 223.949 243.469 160.103C243.405 119.781 280.576 92.5139 321.248 98.4538C353.412 103.137 381.057 122.173 391.495 152.156C391.722 152.805 392.174 153.258 392.853 153.515C427.902 166.631 446.849 191.283 443.857 228.078C443.801 228.767 443.942 229.409 444.281 230.003C459.26 256.561 457.669 288.409 434.289 309.635C431.927 311.77 429.586 313.926 427.266 316.102C426.771 316.575 426.531 317.149 426.545 317.825C427.372 346.551 413.921 372.44 384.261 382.231C383.596 382.461 383.065 382.86 382.669 383.427C364.848 409.437 340.024 421.581 308.094 411.424C297.21 407.957 276.418 395.084 274.381 382.779C273.419 377.008 276.503 372.744 283.631 369.987C293.37 366.216 298.08 376.393 303.766 381.015C318.914 393.32 341.149 393.888 354.388 379.271C364.508 368.121 366.014 352.572 358.271 339.76C356.234 336.381 355.244 333.671 355.3 331.631C355.413 326.36 358.221 322.697 363.723 320.643C379.487 314.764 387.74 339.233 388.313 349.754C388.412 351.728 389.126 351.957 390.456 350.444C401.488 337.834 401.382 323.278 400.194 307.587C399.961 304.283 404.607 300.086 408.15 298.221C431.997 285.571 432.931 258.365 419.437 238.133C416.106 233.146 417.888 228.99 418.355 223.638C421.771 183.478 371.022 159.759 338.136 183.295C327.889 190.634 313.228 178.308 319.148 168.273C325.873 156.88 348.256 150.656 360.923 149.521C361.87 149.44 362.068 149.028 361.517 148.284Z" fill="white"/>
<defs>
<linearGradient id="paint0_linear_608_11" x1="18" y1="-6.66128e-07" x2="191.5" y2="871" gradientUnits="userSpaceOnUse">
<stop stop-color="#458CAA"/>
<stop offset="0.479217" stop-color="#B9BBBC"/>
<stop offset="1" stop-color="#7A0B8C"/>
</linearGradient>
</defs>
</svg>
